# xmcd
#
# Track frame offsets: 
#        150
#        18433
#        31810
#        47270
#        60921
#        75488
#        93449
#        114240
#        132371
#        150976
#        167964
#        182704
#        198806
#        216251
#        234495
#        250034
#        268489
#        283474
#        299004
#        315339
#
# Disc length: 4418 seconds
#
# Revision: 2
# Processed by: cddbd v1.5.2PL0 Copyright (c) Steve Scherf et al.
# Submitted via: ExactAudioCopy v0.95b4
#
DISCID=11114014
DTITLE=BZN - 100 x BZN - CD 2
DYEAR=2013
DGENRE=Pop
TTITLE0=El condor pasa
TTITLE1=Troubadour
TTITLE2=El cordobes
TTITLE3=Ik wil bij jou zijn
TTITLE4=Oh me oh my
TTITLE5=Where the nightingales sing
TTITLE6=Good old volendam
TTITLE7=If I had only a chance
TTITLE8=Die mooie tijd
TTITLE9=Amore
TTITLE10=Run away home
TTITLE11=Keep smiling
TTITLE12=La France
TTITLE13=Che Sara
TTITLE14=Alleen zonder jou
TTITLE15=Annemarie
TTITLE16=Leef je leven
TTITLE17=Time to say goodbye
TTITLE18=The summertime
TTITLE19=Don't break my heart
EXTD=
EXTT0=
EXTT1=
EXTT2=
EXTT3=
EXTT4=
EXTT5=
EXTT6=
EXTT7=
EXTT8=
EXTT9=
EXTT10=
EXTT11=
EXTT12=
EXTT13=
EXTT14=
EXTT15=
EXTT16=
EXTT17=
EXTT18=
EXTT19=
PLAYORDER=
